<svg width="512" height="512" viewBox="0 0 512 512" fill="none" xmlns="http://www.w3.org/2000/svg">
  <g clip-path="url(#clip0_412_2)">
    <path
      d="M271.804 131.273H339.329L312.853 290.614C309.777 309.56 302.571 325.955 291.235 339.8C279.981 353.565 265.65 364.212 248.242 371.741C230.835 379.19 211.484 382.915 190.19 382.915C168.734 382.915 150.598 379.19 135.781 371.741C120.964 364.212 110.196 353.565 103.475 339.8C96.8362 325.955 95.055 309.56 98.1317 290.614L124.608 131.273H192.133L166.629 284.784C165.414 292.476 166.022 299.317 168.451 305.309C170.88 311.3 174.806 316.037 180.231 319.518C185.656 322.919 192.214 324.619 199.906 324.619C207.679 324.619 214.844 322.919 221.402 319.518C228.041 316.037 233.547 311.3 237.919 305.309C242.291 299.317 245.085 292.476 246.299 284.784L271.804 131.273ZM438.948 131.273L397.655 380H330.129L371.422 131.273H438.948Z"
      fill="#00A3FF" />
  </g>
  <defs>
    <clipPath id="clip0_412_2">
      <rect width="512" height="512" rx="22" fill="white" />
    </clipPath>
  </defs>
</svg>
